<?xml version="1.0" standalone="no"?><!DOCTYPE svg PUBLIC "-//W3C//DTD SVG 1.1//EN" "http://www.w3.org/Graphics/SVG/1.1/DTD/svg11.dtd"><svg xmlns="http://www.w3.org/2000/svg" width="800" height="600" viewBox="0 0 800 600" style="font-family: &quot;Helvetica Neue&quot;, Helvetica, Arial, sans-serif;"><rect width="800" height="600" style="fill: white;"/><g class="sankey" transform="translate(150,10)"><g class="groups"><g class="group" style="display: none;" transform="translate(0,58)"><rect x="-10" y="-20" width="20" height="494" style="fill: #eee; stroke: #bbb; stroke-width: 0.5;"/><text x="-10" y="-25" style="fill: #999;"/></g><g class="group" style="display: none;" transform="translate(250,58)"><rect x="-10" y="-20" width="20" height="388.6890262350348" style="fill: #eee; stroke: #bbb; stroke-width: 0.5;"/><text x="-10" y="-25" style="fill: #999;"/></g><g class="group" style="display: none;" transform="translate(500,58)"><rect x="-10" y="-20" width="20" height="494" style="fill: #eee; stroke: #bbb; stroke-width: 0.5;"/><text x="-10" y="-25" style="fill: #999;"/></g></g><g class="links"><path class="link" style="fill: #FED9A6; opacity: 0.8;" d="M250,342.87775712783275 A103.68725510114007 103.68725510114007 0.49007540291129637 0 0 298.8048047467026,330.6734944572266 L441.3528465068958,254.6262515731055 A124.59761690996353 124.59761690996353 0.49007540291129637 0 1 500,239.9607843137255 L500,245.64705882352942 A118.91134240015961 118.91134240015961 0.49007540291129637 0 0 444.02933280134374,259.6432366155865 L301.48129104115054,335.6904794997076 A109.37352961094399 109.37352961094399 0.49007540291129637 0 1 250,348.5640316376366 Z"><title>change_password_trading → hit
change_password_trading
1.00</title></path><path class="link" style="fill: #FED9A6; opacity: 0.8;" d="M0,499.2549019607843 A117.41389951021895 117.41389951021895 0.741129509369111 0 0 79.26865834712835,468.45799617605803 L191.7701384649805,365.50081644212753 A86.25092506078003 86.25092506078003 0.741129509369111 0 1 250,342.87775712783275 L250,348.5640316376366 A80.56465055097611 80.56465055097611 0.741129509369111 0 0 195.6090651445803,369.69561795703885 L83.10758502672816,472.65279769096935 A123.10017402002288 123.10017402002288 0.741129509369111 0 1 0,504.9411764705882 Z"><title>invalid_password → change_password_trading
change_password_trading
1.00</title></path><path class="link" style="fill: #E5D8BD; opacity: 0.8;" d="M0,487.88235294117646 A106.04135049061111 106.04135049061111 0.8013007668577462 0 0 76.16544457174983,455.621711765808 L188.5012116913587,339.65503533530733 A85.62169632767244 85.62169632767244 0.8013007668577462 0 1 250,313.60660414055405 L250,324.9791531601619 A74.2491473080646 74.2491473080646 0.8013007668577462 0 0 196.6696785015691,347.5677479658705 L84.33391138196028,463.5344243963712 A117.41389951021895 117.41389951021895 0.8013007668577462 0 1 0,499.2549019607843 Z"><title>invalid_password → reset_password_trading
reset_password_trading
2.00</title></path><path class="link" style="fill: #DECBE4; opacity: 0.8;" d="M250,510.6274509803921 A0 0 0 0 0 250,510.6274509803921 L500,510.6274509803921 A0 0 0 0 0 500,510.6274509803921 L500,521.9999999999999 A0 0 0 0 0 500,521.9999999999999 L250,521.9999999999999 A0 0 0 0 0 250,521.9999999999999 Z"><title>→ → miss
others
2.00</title></path><path class="link" style="fill: #E5D8BD; opacity: 0.8;" d="M250,313.60660414055405 A117.33676860559818 117.33676860559818 0.4057824087226187 0 0 296.31725243387564,304.07813481557866 L446.32744216772784,239.629851409579 A135.97016592957138 135.97016592957138 0.4057824087226187 0 1 500,228.58823529411765 L500,239.9607843137255 A124.59761690996353 124.59761690996353 0.4057824087226187 0 0 450.81661661847767,250.0788793047527 L300.80642688462547,314.52716271075235 A128.709317625206 128.709317625206 0.4057824087226187 0 1 250,324.9791531601619 Z"><title>reset_password_trading → hit
reset_password_trading
2.00</title></path><path class="link" style="fill: #FBB4AE; opacity: 0.8;" d="M250,453.7647058823529 A70.57800906682627 70.57800906682627 0.9313453614968856 0 0 306.6334543286613,425.30447470848355 L404.58274230146014,293.5974663038443 A118.91134240015961 118.91134240015961 0.9313453614968856 0 1 500,245.64705882352942 L500,257.01960784313724 A107.53879338055177 107.53879338055177 0.9313453614968856 0 0 413.7083430943727,300.38409148664147 L315.75905512157385,432.0910998912807 A81.95055808643411 81.95055808643411 0.9313453614968856 0 1 250,465.1372549019608 Z"><title>→ → hit
billing_installment
2.00</title></path><path class="link" style="fill: #CCEBC5; opacity: 0.8;" d="M0,58 A0 0 0 0 0 0,58 L250,58 A0 0 0 0 0 250,58 L250,69.37254901960785 A0 0 0 0 0 250,69.37254901960785 L0,69.37254901960785 A0 0 0 0 0 0,69.37254901960785 Z"><title>checking_bills → installment_campaign
installment_campaign
2.00</title></path><path class="link" style="fill: #CCEBC5; opacity: 0.8;" d="M250,58 A0 0 0 0 0 250,58 L500,58 A0 0 0 0 0 500,58 L500,69.37254901960785 A0 0 0 0 0 500,69.37254901960785 L250,69.37254901960785 A0 0 0 0 0 250,69.37254901960785 Z"><title>installment_campaign → hit
installment_campaign
2.00</title></path><path class="link" style="fill: #B3CDE3; opacity: 0.8;" d="M250,465.1372549019608 A81.95055808643411 81.95055808643411 0.9313453614968857 0 0 315.7590551215739,432.09109989128063 L413.70834309437276,300.38409148664147 A107.53879338055177 107.53879338055177 0.9313453614968857 0 1 500,257.01960784313724 L500,274.07843137254895 A90.47996985114 90.47996985114 0.9313453614968857 0 0 427.3967442837416,310.5640292608371 L329.44745631094275,442.2710376654763 A99.00938161584588 99.00938161584588 0.9313453614968857 0 1 250,482.1960784313725 Z"><title>→ → hit
delay_payment
3.00</title></path><path class="link" style="fill: #DECBE4; opacity: 0.8;" d="M0,504.9411764705883 A123.10017402002288 123.10017402002288 0.5097056227156587 0 0 60.06307501674662,489.29368907725046 L194.69515044871966,414.03808868053886 A113.34811948964648 113.34811948964648 0.5097056227156587 0 1 250,399.63020270562305 L250,416.68902623503476 A96.28929596023471 96.28929596023471 0.5097056227156587 0 0 203.01849690619778,428.9285340720105 L68.38642147422478,504.1841344687221 A140.15899754943464 140.15899754943464 0.5097056227156587 0 1 0,522 Z"><title>invalid_password → others
others
3.00</title></path><path class="link" style="fill: #DECBE4; opacity: 0.8;" d="M0,171.72549019607843 A84.62005034711181 84.62005034711181 0.8648050608004777 0 1 64.39321848894733,201.44502749110273 L198.58801404622452,358.84309738165 A67.56122681770005 67.56122681770005 0.8648050608004777 0 0 250,382.5713791762113 L250,399.630202705623 A84.62005034711181 84.62005034711181 0.8648050608004777 0 1 185.60678151105267,369.9106654105987 L51.411985953775485,212.5125955200515 A67.56122681770005 67.56122681770005 0.8648050608004777 0 0 0,188.7843137254902 Z"><title>checking_bills → others
others
3.00</title></path><path class="link" style="fill: #CCEBC5; opacity: 0.8;" d="M250,482.19607843137254 A99.00938161584588 99.00938161584588 0.9313453614968855 0 0 329.4474563109428,442.2710376654764 L427.39674428374167,310.5640292608372 A90.47996985114 90.47996985114 0.9313453614968855 0 1 500,274.07843137254906 L500,302.5098039215686 A62.048597302120385 62.048597302120385 0.9313453614968855 0 0 450.2107462660232,327.53059221782996 L352.26145829322434,459.2376006224692 A127.4407541648655 127.4407541648655 0.9313453614968855 0 1 250,510.6274509803921 Z"><title>→ → hit
installment_campaign
5.00</title></path><path class="link" style="fill: #DECBE4; opacity: 0.8;" d="M250,382.5713791762113 A130.9490039912108 130.9490039912108 0.44119365906633323 0 1 305.9177292861253,395.1107163417201 L458.651158555457,467.2374841958651 A96.83135693238725 96.83135693238725 0.44119365906633323 0 0 500,476.5098039215686 L500,510.62745098039215 A130.9490039912108 130.9490039912108 0.44119365906633323 0 1 444.0822707138747,498.08811381488334 L291.348841444543,425.96134596073836 A96.83135693238725 96.83135693238725 0.44119365906633323 0 0 250,416.6890262350348 Z"><title>others → miss
others
6.00</title></path><path class="link" style="fill: #FBB4AE; opacity: 0.8;" d="M0,126.23529411764704 A290.0066127270538 290.0066127270538 0.17429448134278047 0 1 50.29101863363212,130.62914650264076 L207.59758872299096,158.32786569880724 A244.5164166486224 244.5164166486224 0.17429448134278047 0 0 250,162.03250205298872 L250,207.5226981314201 A290.0066127270538 290.0066127270538 0.17429448134278047 0 1 199.70898136636788,203.12884574642638 L42.402411277009065,175.4301265502599 A244.5164166486224 244.5164166486224 0.17429448134278047 0 0 0,171.72549019607843 Z"><title>checking_bills → billing_installment
billing_installment
8.00</title></path><path class="link" style="fill: #FBB4AE; opacity: 0.8;" d="M250,162.03250205298872 A244.5164166486224 244.5164166486224 0.17429448134278047 0 0 292.40241127700904,158.32786569880724 L449.7089813663679,130.62914650264076 A290.0066127270538 290.0066127270538 0.17429448134278047 0 1 500,126.23529411764704 L500,171.72549019607843 A244.5164166486224 244.5164166486224 0.17429448134278047 0 0 457.59758872299096,175.4301265502599 L300.2910186336321,203.12884574642638 A290.0066127270538 290.0066127270538 0.17429448134278047 0 1 250,207.5226981314201 Z"><title>billing_installment → hit
billing_installment
8.00</title></path><path class="link" style="fill: #FFFFCC; opacity: 0.8;" d="M250,238.84525507484403 A121.31229004814827 121.31229004814827 0.3264204887131339 0 0 288.89934267787334,232.43950468373808 L438.16724189562535,181.9078014420615 A192.8329110276106 192.8329110276106 0.3264204887131339 0 1 500,171.72549019607843 L500,228.58823529411765 A135.97016592957138 135.97016592957138 0.3264204887131339 0 0 456.40054213499343,235.7679772908799 L307.1326429172414,286.2996805325565 A178.1750351461875 178.1750351461875 0.3264204887131339 0 1 250,295.70800017288326 Z"><title>reset_password_lookup → hit
reset_password_lookup
10.0</title></path><path class="link" style="fill: #B3CDE3; opacity: 0.8;" d="M0,69.37254901960785 A554.9000301392442 554.9000301392442 0.08757087029771671 0 1 48.53099509916571,71.49885876033412 L206.442163044267,85.36273440211073 A498.03728504120505 498.03728504120505 0.08757087029771671 0 0 250,87.27115298727867 L250,144.1338980853179 A554.9000301392442 554.9000301392442 0.08757087029771671 0 1 201.46900490083428,142.00758834459162 L43.55783695573298,128.143712702815 A498.03728504120505 498.03728504120505 0.08757087029771671 0 0 0,126.23529411764707 Z"><title>checking_bills → delay_payment
delay_payment
10.0</title></path><path class="link" style="fill: #FFFFCC; opacity: 0.8;" d="M0,431.01960784313724 A49.17860539257188 49.17860539257188 0.8081341369919205 0 0 35.55610242349046,415.8159757222039 L173.33216672022758,271.6280814603543 A106.04135049061112 106.04135049061112 0.8081341369919205 0 1 250,238.84525507484403 L250,295.70800017288326 A49.178605392571896 49.178605392571896 0.8081341369919205 0 0 214.44389757650953,310.9116322938166 L76.66783327977244,455.0995265556662 A106.04135049061111 106.04135049061111 0.8081341369919205 0 1 0,487.88235294117646 Z"><title>invalid_password → reset_password_lookup
reset_password_lookup
10.0</title></path><path class="link" style="fill: #B3CDE3; opacity: 0.8;" d="M250,87.27115298727867 A498.03728504120505 498.03728504120505 0.08757087029771671 0 0 293.55783695573297,85.36273440211073 L451.46900490083425,71.49885876033412 A554.9000301392442 554.9000301392442 0.08757087029771671 0 1 500,69.37254901960785 L500,126.23529411764707 A498.03728504120505 498.03728504120505 0.08757087029771671 0 0 456.44216304426703,128.143712702815 L298.53099509916575,142.00758834459162 A554.9000301392442 554.9000301392442 0.08757087029771671 0 1 250,144.1338980853179 Z"><title>delay_payment → hit
delay_payment
10.0</title></path></g><g class="nodes"><g class="node node-style-default" transform="translate(0,58)" style="display: inline;"><title>checking_bills</title><text transform="translate(-4,65.3921568627451)" text-anchor="end" dy=".35em" style="opacity: 1;">checking_bills</text><line x1="0" x2="0" y1="0" y2="130.7843137254902" style="stroke: #000; stroke-width: 1px;"/><rect x="-5" y="-5" style="fill: none; visibility: hidden; pointer-events: all;" width="10" height="135.7843137254902"/></g><g class="node node-style-default" transform="translate(250,162.03250205298872)" style="display: inline;"><title>billing_installment</title><text transform="translate(4,22.745098039215687)" text-anchor="start" dy=".35em" style="opacity: 1;">billing_installment</text><line x1="0" x2="0" y1="0" y2="45.490196078431374" style="stroke: #000; stroke-width: 1px;"/><rect x="-5" y="-5" style="fill: none; visibility: hidden; pointer-events: all;" width="10" height="50.490196078431374"/></g><g class="node node-style-default" transform="translate(250,87.27115298727867)" style="display: inline;"><title>delay_payment</title><text transform="translate(4,28.43137254901961)" text-anchor="start" dy=".35em" style="opacity: 1;">delay_payment</text><line x1="0" x2="0" y1="0" y2="56.86274509803922" style="stroke: #000; stroke-width: 1px;"/><rect x="-5" y="-5" style="fill: none; visibility: hidden; pointer-events: all;" width="10" height="61.86274509803922"/></g><g class="node node-style-default" transform="translate(250,58)" style="display: inline;"><title>installment_campaign</title><text transform="translate(-4,-10)" text-anchor="start" dy=".35em" style="opacity: 1;">installment_campaign</text><line x1="0" x2="0" y1="-5" y2="11.372549019607844" style="stroke: #000; stroke-width: 1px;"/><rect x="-5" y="-5" style="fill: none; visibility: hidden; pointer-events: all;" width="10" height="16.372549019607845"/></g><g class="node node-style-default" transform="translate(250,382.5713791762113)" style="display: inline;"><title>others</title><text transform="translate(-4,-10)" text-anchor="start" dy=".35em" style="opacity: 1;">others</text><line x1="0" x2="0" y1="-5" y2="34.11764705882353" style="stroke: #000; stroke-width: 1px;"/><rect x="-5" y="-5" style="fill: none; visibility: hidden; pointer-events: all;" width="10" height="39.11764705882353"/></g><g class="node node-style-default" transform="translate(0,431.01960784313724)" style="display: inline;"><title>invalid_password</title><text transform="translate(-4,45.490196078431374)" text-anchor="end" dy=".35em" style="opacity: 1;">invalid_password</text><line x1="0" x2="0" y1="0" y2="90.98039215686275" style="stroke: #000; stroke-width: 1px;"/><rect x="-5" y="-5" style="fill: none; visibility: hidden; pointer-events: all;" width="10" height="95.98039215686275"/></g><g class="node node-style-default" transform="translate(250,342.87775712783275)" style="display: inline;"><title>change_password_trading</title><text transform="translate(4,2.843137254901961)" text-anchor="start" dy=".35em" style="opacity: 1;">change_password_trading</text><line x1="0" x2="0" y1="0" y2="5.686274509803922" style="stroke: #000; stroke-width: 1px;"/><rect x="-5" y="-5" style="fill: none; visibility: hidden; pointer-events: all;" width="10" height="10.686274509803923"/></g><g class="node node-style-default" transform="translate(250,238.84525507484403)" style="display: inline;"><title>reset_password_lookup</title><text transform="translate(-4,-10)" text-anchor="start" dy=".35em" style="opacity: 1;">reset_password_lookup</text><line x1="0" x2="0" y1="-5" y2="56.86274509803922" style="stroke: #000; stroke-width: 1px;"/><rect x="-5" y="-5" style="fill: none; visibility: hidden; pointer-events: all;" width="10" height="61.86274509803922"/></g><g class="node node-style-default" transform="translate(250,313.60660414055405)" style="display: inline;"><title>reset_password_trading</title><text transform="translate(4,5.686274509803922)" text-anchor="start" dy=".35em" style="opacity: 1;">reset_password_trading</text><line x1="0" x2="0" y1="0" y2="11.372549019607844" style="stroke: #000; stroke-width: 1px;"/><rect x="-5" y="-5" style="fill: none; visibility: hidden; pointer-events: all;" width="10" height="16.372549019607845"/></g><g class="node node-style-default" transform="translate(500,58)" style="display: inline;"><title>hit</title><text transform="translate(4,122.25490196078432)" text-anchor="start" dy=".35em" style="opacity: 1;">hit</text><line x1="0" x2="0" y1="0" y2="244.50980392156865" style="stroke: #000; stroke-width: 1px;"/><rect x="-5" y="-5" style="fill: none; visibility: hidden; pointer-events: all;" width="10" height="249.50980392156865"/></g><g class="node node-style-default" transform="translate(500,476.5098039215686)" style="display: inline;"><title>miss</title><text transform="translate(4,22.745098039215687)" text-anchor="start" dy=".35em" style="opacity: 1;">miss</text><line x1="0" x2="0" y1="0" y2="45.490196078431374" style="stroke: #000; stroke-width: 1px;"/><rect x="-5" y="-5" style="fill: none; visibility: hidden; pointer-events: all;" width="10" height="50.490196078431374"/></g><g class="node node-style-default" transform="translate(250,453.7647058823529)" style="display: inline;"><title>→</title><text transform="translate(-4,34.11764705882353)" text-anchor="end" dy=".35em" style="opacity: 1;">→</text><line x1="0" x2="0" y1="0" y2="68.23529411764706" style="stroke: #000; stroke-width: 1px;"/><rect x="-5" y="-5" style="fill: none; visibility: hidden; pointer-events: all;" width="10" height="73.23529411764706"/></g></g><g class="slice-titles" transform="translate(150,0)"/></g></svg>